                                                                        S      1
,,6Hmaster,6Hmaster,7Hunknown,7Hunknown,32,38,7,99,15,,1.,2,2HMM,1,0.08,G      1
15H20260221.174756,0.01,10000.,7Hunknown,7Hunknown,11,0,15H20260203.1707G      2
40;                                                                     G      3
     314       1                                                00000200D      1
     314                       2       0                               0D      2
314,62.7450980392157,62.7450980392157,62.7450980392157,13HSteel        1P      1
- Satin;                                                               1P      2
S      1G      3D      2P      2                                        T      1
